REM MD5 66654218af525accdd7bcc3cede0db60
FILE "Pop de Cute na Shinri Test - Alabama (Japan).bin" BINARY
  TRACK 01 MODE2/2352
    INDEX 01 00:00:00
  TRACK 02 AUDIO
    INDEX 00 63:38:65
    INDEX 01 63:40:65
  TRACK 03 AUDIO
    INDEX 00 63:57:65
    INDEX 01 63:59:65
REM LEADOUT 67:03:41
